<mxfile host="app.diagrams.net" agent="Mozilla/5.0 (Windows NT 10.0; Win64; x64) AppleWebKit/537.36 (KHTML, like Gecko) Chrome/127.0.0.0 Safari/537.36 OPR/113.0.0.0" scale="1" border="25" version="24.7.15">
  <diagram name="Page-1" id="agiJLAfS6YN4QMM4z-R0">
    <mxGraphModel dx="751" dy="751" grid="1" gridSize="10" guides="1" tooltips="1" connect="1" arrows="1" fold="1" page="1" pageScale="1" pageWidth="850" pageHeight="1100" math="0" shadow="0">
      <root>
        <mxCell id="0" />
        <mxCell id="1" parent="0" />
        <mxCell id="mYkANbgdOj-MDICQV8pz-27" value="Users" style="shape=table;startSize=30;container=1;collapsible=0;childLayout=tableLayout;strokeColor=default;fontSize=16;" parent="1" vertex="1">
          <mxGeometry x="40" y="40" width="760" height="70" as="geometry" />
        </mxCell>
        <mxCell id="mYkANbgdOj-MDICQV8pz-28" value="" style="shape=tableRow;horizontal=0;startSize=0;swimlaneHead=0;swimlaneBody=0;strokeColor=inherit;top=0;left=0;bottom=0;right=0;collapsible=0;dropTarget=0;fillColor=none;points=[[0,0.5],[1,0.5]];portConstraint=eastwest;fontSize=16;" parent="mYkANbgdOj-MDICQV8pz-27" vertex="1">
          <mxGeometry y="30" width="760" height="40" as="geometry" />
        </mxCell>
        <mxCell id="mYkANbgdOj-MDICQV8pz-29" value="&lt;u&gt;ID&lt;/u&gt;" style="shape=partialRectangle;html=1;whiteSpace=wrap;connectable=0;strokeColor=inherit;overflow=hidden;fillColor=none;top=0;left=0;bottom=0;right=0;pointerEvents=1;fontSize=16;" parent="mYkANbgdOj-MDICQV8pz-28" vertex="1">
          <mxGeometry width="127" height="40" as="geometry">
            <mxRectangle width="127" height="40" as="alternateBounds" />
          </mxGeometry>
        </mxCell>
        <mxCell id="mYkANbgdOj-MDICQV8pz-30" value="Username" style="shape=partialRectangle;html=1;whiteSpace=wrap;connectable=0;strokeColor=inherit;overflow=hidden;fillColor=none;top=0;left=0;bottom=0;right=0;pointerEvents=1;fontSize=16;" parent="mYkANbgdOj-MDICQV8pz-28" vertex="1">
          <mxGeometry x="127" width="126" height="40" as="geometry">
            <mxRectangle width="126" height="40" as="alternateBounds" />
          </mxGeometry>
        </mxCell>
        <mxCell id="mYkANbgdOj-MDICQV8pz-31" value="UserPassword" style="shape=partialRectangle;html=1;whiteSpace=wrap;connectable=0;strokeColor=inherit;overflow=hidden;fillColor=none;top=0;left=0;bottom=0;right=0;pointerEvents=1;fontSize=16;" parent="mYkANbgdOj-MDICQV8pz-28" vertex="1">
          <mxGeometry x="253" width="127" height="40" as="geometry">
            <mxRectangle width="127" height="40" as="alternateBounds" />
          </mxGeometry>
        </mxCell>
        <mxCell id="mYkANbgdOj-MDICQV8pz-49" value="JoinDate" style="shape=partialRectangle;html=1;whiteSpace=wrap;connectable=0;strokeColor=inherit;overflow=hidden;fillColor=none;top=0;left=0;bottom=0;right=0;pointerEvents=1;fontSize=16;" parent="mYkANbgdOj-MDICQV8pz-28" vertex="1">
          <mxGeometry x="380" width="127" height="40" as="geometry">
            <mxRectangle width="127" height="40" as="alternateBounds" />
          </mxGeometry>
        </mxCell>
        <mxCell id="mYkANbgdOj-MDICQV8pz-54" value="Status" style="shape=partialRectangle;html=1;whiteSpace=wrap;connectable=0;strokeColor=inherit;overflow=hidden;fillColor=none;top=0;left=0;bottom=0;right=0;pointerEvents=1;fontSize=16;" parent="mYkANbgdOj-MDICQV8pz-28" vertex="1">
          <mxGeometry x="507" width="126" height="40" as="geometry">
            <mxRectangle width="126" height="40" as="alternateBounds" />
          </mxGeometry>
        </mxCell>
        <mxCell id="mYkANbgdOj-MDICQV8pz-59" value="Bio" style="shape=partialRectangle;html=1;whiteSpace=wrap;connectable=0;strokeColor=inherit;overflow=hidden;fillColor=none;top=0;left=0;bottom=0;right=0;pointerEvents=1;fontSize=16;" parent="mYkANbgdOj-MDICQV8pz-28" vertex="1">
          <mxGeometry x="633" width="127" height="40" as="geometry">
            <mxRectangle width="127" height="40" as="alternateBounds" />
          </mxGeometry>
        </mxCell>
        <mxCell id="mYkANbgdOj-MDICQV8pz-60" value="Post" style="shape=table;startSize=30;container=1;collapsible=0;childLayout=tableLayout;strokeColor=default;fontSize=16;" parent="1" vertex="1">
          <mxGeometry x="40" y="480" width="507" height="70" as="geometry" />
        </mxCell>
        <mxCell id="mYkANbgdOj-MDICQV8pz-61" value="" style="shape=tableRow;horizontal=0;startSize=0;swimlaneHead=0;swimlaneBody=0;strokeColor=inherit;top=0;left=0;bottom=0;right=0;collapsible=0;dropTarget=0;fillColor=none;points=[[0,0.5],[1,0.5]];portConstraint=eastwest;fontSize=16;" parent="mYkANbgdOj-MDICQV8pz-60" vertex="1">
          <mxGeometry y="30" width="507" height="40" as="geometry" />
        </mxCell>
        <mxCell id="mYkANbgdOj-MDICQV8pz-62" value="&lt;u&gt;PostID&lt;/u&gt;" style="shape=partialRectangle;html=1;whiteSpace=wrap;connectable=0;strokeColor=inherit;overflow=hidden;fillColor=none;top=0;left=0;bottom=0;right=0;pointerEvents=1;fontSize=16;" parent="mYkANbgdOj-MDICQV8pz-61" vertex="1">
          <mxGeometry width="127" height="40" as="geometry">
            <mxRectangle width="127" height="40" as="alternateBounds" />
          </mxGeometry>
        </mxCell>
        <mxCell id="mYkANbgdOj-MDICQV8pz-63" value="PostDescription" style="shape=partialRectangle;html=1;whiteSpace=wrap;connectable=0;strokeColor=inherit;overflow=hidden;fillColor=none;top=0;left=0;bottom=0;right=0;pointerEvents=1;fontSize=16;" parent="mYkANbgdOj-MDICQV8pz-61" vertex="1">
          <mxGeometry x="127" width="126" height="40" as="geometry">
            <mxRectangle width="126" height="40" as="alternateBounds" />
          </mxGeometry>
        </mxCell>
        <mxCell id="mYkANbgdOj-MDICQV8pz-64" value="ImageLink" style="shape=partialRectangle;html=1;whiteSpace=wrap;connectable=0;strokeColor=inherit;overflow=hidden;fillColor=none;top=0;left=0;bottom=0;right=0;pointerEvents=1;fontSize=16;" parent="mYkANbgdOj-MDICQV8pz-61" vertex="1">
          <mxGeometry x="253" width="127" height="40" as="geometry">
            <mxRectangle width="127" height="40" as="alternateBounds" />
          </mxGeometry>
        </mxCell>
        <mxCell id="mYkANbgdOj-MDICQV8pz-65" value="PostTime" style="shape=partialRectangle;html=1;whiteSpace=wrap;connectable=0;strokeColor=inherit;overflow=hidden;fillColor=none;top=0;left=0;bottom=0;right=0;pointerEvents=1;fontSize=16;" parent="mYkANbgdOj-MDICQV8pz-61" vertex="1">
          <mxGeometry x="380" width="127" height="40" as="geometry">
            <mxRectangle width="127" height="40" as="alternateBounds" />
          </mxGeometry>
        </mxCell>
        <mxCell id="mYkANbgdOj-MDICQV8pz-68" value="Community" style="shape=table;startSize=30;container=1;collapsible=0;childLayout=tableLayout;strokeColor=default;fontSize=16;" parent="1" vertex="1">
          <mxGeometry x="850" y="330" width="840" height="70" as="geometry" />
        </mxCell>
        <mxCell id="mYkANbgdOj-MDICQV8pz-69" value="" style="shape=tableRow;horizontal=0;startSize=0;swimlaneHead=0;swimlaneBody=0;strokeColor=inherit;top=0;left=0;bottom=0;right=0;collapsible=0;dropTarget=0;fillColor=none;points=[[0,0.5],[1,0.5]];portConstraint=eastwest;fontSize=16;" parent="mYkANbgdOj-MDICQV8pz-68" vertex="1">
          <mxGeometry y="30" width="840" height="40" as="geometry" />
        </mxCell>
        <mxCell id="mYkANbgdOj-MDICQV8pz-70" value="&lt;u&gt;CommunityID&lt;/u&gt;" style="shape=partialRectangle;html=1;whiteSpace=wrap;connectable=0;strokeColor=inherit;overflow=hidden;fillColor=none;top=0;left=0;bottom=0;right=0;pointerEvents=1;fontSize=16;" parent="mYkANbgdOj-MDICQV8pz-69" vertex="1">
          <mxGeometry width="168" height="40" as="geometry">
            <mxRectangle width="168" height="40" as="alternateBounds" />
          </mxGeometry>
        </mxCell>
        <mxCell id="mYkANbgdOj-MDICQV8pz-71" value="CommunityName" style="shape=partialRectangle;html=1;whiteSpace=wrap;connectable=0;strokeColor=inherit;overflow=hidden;fillColor=none;top=0;left=0;bottom=0;right=0;pointerEvents=1;fontSize=16;" parent="mYkANbgdOj-MDICQV8pz-69" vertex="1">
          <mxGeometry x="168" width="168" height="40" as="geometry">
            <mxRectangle width="168" height="40" as="alternateBounds" />
          </mxGeometry>
        </mxCell>
        <mxCell id="mYkANbgdOj-MDICQV8pz-72" value="CommunityDescription" style="shape=partialRectangle;html=1;whiteSpace=wrap;connectable=0;strokeColor=inherit;overflow=hidden;fillColor=none;top=0;left=0;bottom=0;right=0;pointerEvents=1;fontSize=16;" parent="mYkANbgdOj-MDICQV8pz-69" vertex="1">
          <mxGeometry x="336" width="168" height="40" as="geometry">
            <mxRectangle width="168" height="40" as="alternateBounds" />
          </mxGeometry>
        </mxCell>
        <mxCell id="mYkANbgdOj-MDICQV8pz-73" value="CreationDate" style="shape=partialRectangle;html=1;whiteSpace=wrap;connectable=0;strokeColor=inherit;overflow=hidden;fillColor=none;top=0;left=0;bottom=0;right=0;pointerEvents=1;fontSize=16;" parent="mYkANbgdOj-MDICQV8pz-69" vertex="1">
          <mxGeometry x="504" width="169" height="40" as="geometry">
            <mxRectangle width="169" height="40" as="alternateBounds" />
          </mxGeometry>
        </mxCell>
        <mxCell id="mYkANbgdOj-MDICQV8pz-74" value="&lt;u&gt;OwnerID&lt;/u&gt;" style="shape=partialRectangle;html=1;whiteSpace=wrap;connectable=0;strokeColor=inherit;overflow=hidden;fillColor=none;top=0;left=0;bottom=0;right=0;pointerEvents=1;fontSize=16;" parent="mYkANbgdOj-MDICQV8pz-69" vertex="1">
          <mxGeometry x="673" width="167" height="40" as="geometry">
            <mxRectangle width="167" height="40" as="alternateBounds" />
          </mxGeometry>
        </mxCell>
        <mxCell id="mYkANbgdOj-MDICQV8pz-76" value="Member" style="shape=table;startSize=30;container=1;collapsible=0;childLayout=tableLayout;strokeColor=default;fontSize=16;" parent="1" vertex="1">
          <mxGeometry x="157" y="200" width="380" height="70" as="geometry" />
        </mxCell>
        <mxCell id="mYkANbgdOj-MDICQV8pz-77" value="" style="shape=tableRow;horizontal=0;startSize=0;swimlaneHead=0;swimlaneBody=0;strokeColor=inherit;top=0;left=0;bottom=0;right=0;collapsible=0;dropTarget=0;fillColor=none;points=[[0,0.5],[1,0.5]];portConstraint=eastwest;fontSize=16;" parent="mYkANbgdOj-MDICQV8pz-76" vertex="1">
          <mxGeometry y="30" width="380" height="40" as="geometry" />
        </mxCell>
        <mxCell id="mYkANbgdOj-MDICQV8pz-78" value="UserID" style="shape=partialRectangle;html=1;whiteSpace=wrap;connectable=0;strokeColor=inherit;overflow=hidden;fillColor=none;top=0;left=0;bottom=0;right=0;pointerEvents=1;fontSize=16;" parent="mYkANbgdOj-MDICQV8pz-77" vertex="1">
          <mxGeometry width="127" height="40" as="geometry">
            <mxRectangle width="127" height="40" as="alternateBounds" />
          </mxGeometry>
        </mxCell>
        <mxCell id="mYkANbgdOj-MDICQV8pz-79" value="CommunityID" style="shape=partialRectangle;html=1;whiteSpace=wrap;connectable=0;strokeColor=inherit;overflow=hidden;fillColor=none;top=0;left=0;bottom=0;right=0;pointerEvents=1;fontSize=16;" parent="mYkANbgdOj-MDICQV8pz-77" vertex="1">
          <mxGeometry x="127" width="126" height="40" as="geometry">
            <mxRectangle width="126" height="40" as="alternateBounds" />
          </mxGeometry>
        </mxCell>
        <mxCell id="mYkANbgdOj-MDICQV8pz-80" value="JoinDate" style="shape=partialRectangle;html=1;whiteSpace=wrap;connectable=0;strokeColor=inherit;overflow=hidden;fillColor=none;top=0;left=0;bottom=0;right=0;pointerEvents=1;fontSize=16;" parent="mYkANbgdOj-MDICQV8pz-77" vertex="1">
          <mxGeometry x="253" width="127" height="40" as="geometry">
            <mxRectangle width="127" height="40" as="alternateBounds" />
          </mxGeometry>
        </mxCell>
        <mxCell id="mYkANbgdOj-MDICQV8pz-84" value="CommunityPost" style="shape=table;startSize=30;container=1;collapsible=0;childLayout=tableLayout;strokeColor=default;fontSize=16;" parent="1" vertex="1">
          <mxGeometry x="1160" y="480" width="380" height="70" as="geometry" />
        </mxCell>
        <mxCell id="mYkANbgdOj-MDICQV8pz-85" value="" style="shape=tableRow;horizontal=0;startSize=0;swimlaneHead=0;swimlaneBody=0;strokeColor=inherit;top=0;left=0;bottom=0;right=0;collapsible=0;dropTarget=0;fillColor=none;points=[[0,0.5],[1,0.5]];portConstraint=eastwest;fontSize=16;" parent="mYkANbgdOj-MDICQV8pz-84" vertex="1">
          <mxGeometry y="30" width="380" height="40" as="geometry" />
        </mxCell>
        <mxCell id="mYkANbgdOj-MDICQV8pz-86" value="UserID" style="shape=partialRectangle;html=1;whiteSpace=wrap;connectable=0;strokeColor=inherit;overflow=hidden;fillColor=none;top=0;left=0;bottom=0;right=0;pointerEvents=1;fontSize=16;" parent="mYkANbgdOj-MDICQV8pz-85" vertex="1">
          <mxGeometry width="127" height="40" as="geometry">
            <mxRectangle width="127" height="40" as="alternateBounds" />
          </mxGeometry>
        </mxCell>
        <mxCell id="mYkANbgdOj-MDICQV8pz-87" value="CommunityID" style="shape=partialRectangle;html=1;whiteSpace=wrap;connectable=0;strokeColor=inherit;overflow=hidden;fillColor=none;top=0;left=0;bottom=0;right=0;pointerEvents=1;fontSize=16;" parent="mYkANbgdOj-MDICQV8pz-85" vertex="1">
          <mxGeometry x="127" width="126" height="40" as="geometry">
            <mxRectangle width="126" height="40" as="alternateBounds" />
          </mxGeometry>
        </mxCell>
        <mxCell id="mYkANbgdOj-MDICQV8pz-88" value="PostID" style="shape=partialRectangle;html=1;whiteSpace=wrap;connectable=0;strokeColor=inherit;overflow=hidden;fillColor=none;top=0;left=0;bottom=0;right=0;pointerEvents=1;fontSize=16;" parent="mYkANbgdOj-MDICQV8pz-85" vertex="1">
          <mxGeometry x="253" width="127" height="40" as="geometry">
            <mxRectangle width="127" height="40" as="alternateBounds" />
          </mxGeometry>
        </mxCell>
        <mxCell id="mYkANbgdOj-MDICQV8pz-92" value="SharedPosts" style="shape=table;startSize=30;container=1;collapsible=0;childLayout=tableLayout;strokeColor=default;fontSize=16;" parent="1" vertex="1">
          <mxGeometry x="600" y="480" width="507" height="70" as="geometry" />
        </mxCell>
        <mxCell id="mYkANbgdOj-MDICQV8pz-93" value="" style="shape=tableRow;horizontal=0;startSize=0;swimlaneHead=0;swimlaneBody=0;strokeColor=inherit;top=0;left=0;bottom=0;right=0;collapsible=0;dropTarget=0;fillColor=none;points=[[0,0.5],[1,0.5]];portConstraint=eastwest;fontSize=16;" parent="mYkANbgdOj-MDICQV8pz-92" vertex="1">
          <mxGeometry y="30" width="507" height="40" as="geometry" />
        </mxCell>
        <mxCell id="mYkANbgdOj-MDICQV8pz-94" value="SharerID" style="shape=partialRectangle;html=1;whiteSpace=wrap;connectable=0;strokeColor=inherit;overflow=hidden;fillColor=none;top=0;left=0;bottom=0;right=0;pointerEvents=1;fontSize=16;" parent="mYkANbgdOj-MDICQV8pz-93" vertex="1">
          <mxGeometry width="127" height="40" as="geometry">
            <mxRectangle width="127" height="40" as="alternateBounds" />
          </mxGeometry>
        </mxCell>
        <mxCell id="mYkANbgdOj-MDICQV8pz-95" value="OwnerID" style="shape=partialRectangle;html=1;whiteSpace=wrap;connectable=0;strokeColor=inherit;overflow=hidden;fillColor=none;top=0;left=0;bottom=0;right=0;pointerEvents=1;fontSize=16;" parent="mYkANbgdOj-MDICQV8pz-93" vertex="1">
          <mxGeometry x="127" width="126" height="40" as="geometry">
            <mxRectangle width="126" height="40" as="alternateBounds" />
          </mxGeometry>
        </mxCell>
        <mxCell id="mYkANbgdOj-MDICQV8pz-96" value="PostID" style="shape=partialRectangle;html=1;whiteSpace=wrap;connectable=0;strokeColor=inherit;overflow=hidden;fillColor=none;top=0;left=0;bottom=0;right=0;pointerEvents=1;fontSize=16;" parent="mYkANbgdOj-MDICQV8pz-93" vertex="1">
          <mxGeometry x="253" width="127" height="40" as="geometry">
            <mxRectangle width="127" height="40" as="alternateBounds" />
          </mxGeometry>
        </mxCell>
        <mxCell id="mYkANbgdOj-MDICQV8pz-97" value="ShareDate" style="shape=partialRectangle;html=1;whiteSpace=wrap;connectable=0;strokeColor=inherit;overflow=hidden;fillColor=none;top=0;left=0;bottom=0;right=0;pointerEvents=1;fontSize=16;" parent="mYkANbgdOj-MDICQV8pz-93" vertex="1">
          <mxGeometry x="380" width="127" height="40" as="geometry">
            <mxRectangle width="127" height="40" as="alternateBounds" />
          </mxGeometry>
        </mxCell>
        <mxCell id="mYkANbgdOj-MDICQV8pz-100" value="CreatedPost" style="shape=table;startSize=30;container=1;collapsible=0;childLayout=tableLayout;strokeColor=default;fontSize=16;" parent="1" vertex="1">
          <mxGeometry x="40" y="650" width="253" height="70" as="geometry" />
        </mxCell>
        <mxCell id="mYkANbgdOj-MDICQV8pz-101" value="" style="shape=tableRow;horizontal=0;startSize=0;swimlaneHead=0;swimlaneBody=0;strokeColor=inherit;top=0;left=0;bottom=0;right=0;collapsible=0;dropTarget=0;fillColor=none;points=[[0,0.5],[1,0.5]];portConstraint=eastwest;fontSize=16;" parent="mYkANbgdOj-MDICQV8pz-100" vertex="1">
          <mxGeometry y="30" width="253" height="40" as="geometry" />
        </mxCell>
        <mxCell id="mYkANbgdOj-MDICQV8pz-102" value="UserID" style="shape=partialRectangle;html=1;whiteSpace=wrap;connectable=0;strokeColor=inherit;overflow=hidden;fillColor=none;top=0;left=0;bottom=0;right=0;pointerEvents=1;fontSize=16;" parent="mYkANbgdOj-MDICQV8pz-101" vertex="1">
          <mxGeometry width="127" height="40" as="geometry">
            <mxRectangle width="127" height="40" as="alternateBounds" />
          </mxGeometry>
        </mxCell>
        <mxCell id="mYkANbgdOj-MDICQV8pz-103" value="PostID" style="shape=partialRectangle;html=1;whiteSpace=wrap;connectable=0;strokeColor=inherit;overflow=hidden;fillColor=none;top=0;left=0;bottom=0;right=0;pointerEvents=1;fontSize=16;" parent="mYkANbgdOj-MDICQV8pz-101" vertex="1">
          <mxGeometry x="127" width="126" height="40" as="geometry">
            <mxRectangle width="126" height="40" as="alternateBounds" />
          </mxGeometry>
        </mxCell>
        <mxCell id="mYkANbgdOj-MDICQV8pz-108" value="Comments" style="shape=table;startSize=30;container=1;collapsible=0;childLayout=tableLayout;strokeColor=default;fontSize=16;" parent="1" vertex="1">
          <mxGeometry x="360" y="650" width="507" height="70" as="geometry" />
        </mxCell>
        <mxCell id="mYkANbgdOj-MDICQV8pz-109" value="" style="shape=tableRow;horizontal=0;startSize=0;swimlaneHead=0;swimlaneBody=0;strokeColor=inherit;top=0;left=0;bottom=0;right=0;collapsible=0;dropTarget=0;fillColor=none;points=[[0,0.5],[1,0.5]];portConstraint=eastwest;fontSize=16;" parent="mYkANbgdOj-MDICQV8pz-108" vertex="1">
          <mxGeometry y="30" width="507" height="40" as="geometry" />
        </mxCell>
        <mxCell id="mYkANbgdOj-MDICQV8pz-110" value="UserID" style="shape=partialRectangle;html=1;whiteSpace=wrap;connectable=0;strokeColor=inherit;overflow=hidden;fillColor=none;top=0;left=0;bottom=0;right=0;pointerEvents=1;fontSize=16;" parent="mYkANbgdOj-MDICQV8pz-109" vertex="1">
          <mxGeometry width="127" height="40" as="geometry">
            <mxRectangle width="127" height="40" as="alternateBounds" />
          </mxGeometry>
        </mxCell>
        <mxCell id="mYkANbgdOj-MDICQV8pz-111" value="PostID" style="shape=partialRectangle;html=1;whiteSpace=wrap;connectable=0;strokeColor=inherit;overflow=hidden;fillColor=none;top=0;left=0;bottom=0;right=0;pointerEvents=1;fontSize=16;" parent="mYkANbgdOj-MDICQV8pz-109" vertex="1">
          <mxGeometry x="127" width="126" height="40" as="geometry">
            <mxRectangle width="126" height="40" as="alternateBounds" />
          </mxGeometry>
        </mxCell>
        <mxCell id="mYkANbgdOj-MDICQV8pz-112" value="UserComment" style="shape=partialRectangle;html=1;whiteSpace=wrap;connectable=0;strokeColor=inherit;overflow=hidden;fillColor=none;top=0;left=0;bottom=0;right=0;pointerEvents=1;fontSize=16;" parent="mYkANbgdOj-MDICQV8pz-109" vertex="1">
          <mxGeometry x="253" width="127" height="40" as="geometry">
            <mxRectangle width="127" height="40" as="alternateBounds" />
          </mxGeometry>
        </mxCell>
        <mxCell id="mYkANbgdOj-MDICQV8pz-113" value="CommentDate" style="shape=partialRectangle;html=1;whiteSpace=wrap;connectable=0;strokeColor=inherit;overflow=hidden;fillColor=none;top=0;left=0;bottom=0;right=0;pointerEvents=1;fontSize=16;" parent="mYkANbgdOj-MDICQV8pz-109" vertex="1">
          <mxGeometry x="380" width="127" height="40" as="geometry">
            <mxRectangle width="127" height="40" as="alternateBounds" />
          </mxGeometry>
        </mxCell>
        <mxCell id="mYkANbgdOj-MDICQV8pz-116" value="Engagement" style="shape=table;startSize=30;container=1;collapsible=0;childLayout=tableLayout;strokeColor=default;fontSize=16;" parent="1" vertex="1">
          <mxGeometry x="40" y="850" width="633" height="70" as="geometry" />
        </mxCell>
        <mxCell id="mYkANbgdOj-MDICQV8pz-117" value="" style="shape=tableRow;horizontal=0;startSize=0;swimlaneHead=0;swimlaneBody=0;strokeColor=inherit;top=0;left=0;bottom=0;right=0;collapsible=0;dropTarget=0;fillColor=none;points=[[0,0.5],[1,0.5]];portConstraint=eastwest;fontSize=16;" parent="mYkANbgdOj-MDICQV8pz-116" vertex="1">
          <mxGeometry y="30" width="633" height="40" as="geometry" />
        </mxCell>
        <mxCell id="mYkANbgdOj-MDICQV8pz-118" value="&lt;u&gt;EngagementID&lt;/u&gt;" style="shape=partialRectangle;html=1;whiteSpace=wrap;connectable=0;strokeColor=inherit;overflow=hidden;fillColor=none;top=0;left=0;bottom=0;right=0;pointerEvents=1;fontSize=16;" parent="mYkANbgdOj-MDICQV8pz-117" vertex="1">
          <mxGeometry width="127" height="40" as="geometry">
            <mxRectangle width="127" height="40" as="alternateBounds" />
          </mxGeometry>
        </mxCell>
        <mxCell id="mYkANbgdOj-MDICQV8pz-119" value="UserID" style="shape=partialRectangle;html=1;whiteSpace=wrap;connectable=0;strokeColor=inherit;overflow=hidden;fillColor=none;top=0;left=0;bottom=0;right=0;pointerEvents=1;fontSize=16;" parent="mYkANbgdOj-MDICQV8pz-117" vertex="1">
          <mxGeometry x="127" width="126" height="40" as="geometry">
            <mxRectangle width="126" height="40" as="alternateBounds" />
          </mxGeometry>
        </mxCell>
        <mxCell id="mYkANbgdOj-MDICQV8pz-120" value="PostID" style="shape=partialRectangle;html=1;whiteSpace=wrap;connectable=0;strokeColor=inherit;overflow=hidden;fillColor=none;top=0;left=0;bottom=0;right=0;pointerEvents=1;fontSize=16;" parent="mYkANbgdOj-MDICQV8pz-117" vertex="1">
          <mxGeometry x="253" width="127" height="40" as="geometry">
            <mxRectangle width="127" height="40" as="alternateBounds" />
          </mxGeometry>
        </mxCell>
        <mxCell id="mYkANbgdOj-MDICQV8pz-121" value="Likes" style="shape=partialRectangle;html=1;whiteSpace=wrap;connectable=0;strokeColor=inherit;overflow=hidden;fillColor=none;top=0;left=0;bottom=0;right=0;pointerEvents=1;fontSize=16;" parent="mYkANbgdOj-MDICQV8pz-117" vertex="1">
          <mxGeometry x="380" width="127" height="40" as="geometry">
            <mxRectangle width="127" height="40" as="alternateBounds" />
          </mxGeometry>
        </mxCell>
        <mxCell id="mYkANbgdOj-MDICQV8pz-122" value="Dislikes" style="shape=partialRectangle;html=1;whiteSpace=wrap;connectable=0;strokeColor=inherit;overflow=hidden;fillColor=none;top=0;left=0;bottom=0;right=0;pointerEvents=1;fontSize=16;" parent="mYkANbgdOj-MDICQV8pz-117" vertex="1">
          <mxGeometry x="507" width="126" height="40" as="geometry">
            <mxRectangle width="126" height="40" as="alternateBounds" />
          </mxGeometry>
        </mxCell>
        <mxCell id="mYkANbgdOj-MDICQV8pz-127" value="" style="endArrow=none;html=1;rounded=0;entryX=0.082;entryY=1.025;entryDx=0;entryDy=0;entryPerimeter=0;exitX=0;exitY=0.5;exitDx=0;exitDy=0;fillColor=#d5e8d4;strokeColor=#82b366;strokeWidth=5;" parent="1" source="mYkANbgdOj-MDICQV8pz-77" target="mYkANbgdOj-MDICQV8pz-28" edge="1">
          <mxGeometry width="50" height="50" relative="1" as="geometry">
            <mxPoint x="90" y="280" as="sourcePoint" />
            <mxPoint x="120" y="140" as="targetPoint" />
            <Array as="points">
              <mxPoint x="102" y="250" />
            </Array>
          </mxGeometry>
        </mxCell>
        <mxCell id="mYkANbgdOj-MDICQV8pz-129" value="" style="endArrow=none;html=1;rounded=0;entryX=0.495;entryY=1.05;entryDx=0;entryDy=0;entryPerimeter=0;exitX=0;exitY=0.5;exitDx=0;exitDy=0;fillColor=#dae8fc;strokeColor=#6c8ebf;strokeWidth=5;" parent="1" source="mYkANbgdOj-MDICQV8pz-69" target="mYkANbgdOj-MDICQV8pz-77" edge="1">
          <mxGeometry width="50" height="50" relative="1" as="geometry">
            <mxPoint x="360" y="370" as="sourcePoint" />
            <mxPoint x="344" y="280" as="targetPoint" />
            <Array as="points">
              <mxPoint x="345" y="380" />
            </Array>
          </mxGeometry>
        </mxCell>
        <mxCell id="mYkANbgdOj-MDICQV8pz-130" value="" style="endArrow=none;html=1;rounded=0;entryX=0.12;entryY=1.025;entryDx=0;entryDy=0;entryPerimeter=0;exitX=0.837;exitY=1;exitDx=0;exitDy=0;exitPerimeter=0;fillColor=#f8cecc;strokeColor=#b85450;strokeWidth=5;" parent="1" source="mYkANbgdOj-MDICQV8pz-85" target="mYkANbgdOj-MDICQV8pz-61" edge="1">
          <mxGeometry width="50" height="50" relative="1" as="geometry">
            <mxPoint x="1360" y="600" as="sourcePoint" />
            <mxPoint x="120" y="560" as="targetPoint" />
            <Array as="points">
              <mxPoint x="1480" y="600" />
              <mxPoint x="101" y="600" />
            </Array>
          </mxGeometry>
        </mxCell>
        <mxCell id="mYkANbgdOj-MDICQV8pz-132" value="" style="endArrow=none;html=1;rounded=0;exitX=0.747;exitY=1.05;exitDx=0;exitDy=0;exitPerimeter=0;fillColor=#f8cecc;strokeColor=#b85450;strokeWidth=5;" parent="1" source="mYkANbgdOj-MDICQV8pz-101" edge="1">
          <mxGeometry width="50" height="50" relative="1" as="geometry">
            <mxPoint x="200" y="760" as="sourcePoint" />
            <mxPoint x="320" y="600" as="targetPoint" />
            <Array as="points">
              <mxPoint x="229" y="760" />
              <mxPoint x="320" y="760" />
            </Array>
          </mxGeometry>
        </mxCell>
        <mxCell id="mYkANbgdOj-MDICQV8pz-133" value="" style="endArrow=none;html=1;rounded=0;entryX=0.381;entryY=0.925;entryDx=0;entryDy=0;entryPerimeter=0;fillColor=#f8cecc;strokeColor=#b85450;strokeWidth=5;" parent="1" target="mYkANbgdOj-MDICQV8pz-109" edge="1">
          <mxGeometry width="50" height="50" relative="1" as="geometry">
            <mxPoint x="320" y="760" as="sourcePoint" />
            <mxPoint x="410" y="760" as="targetPoint" />
            <Array as="points">
              <mxPoint x="553" y="760" />
            </Array>
          </mxGeometry>
        </mxCell>
        <mxCell id="mYkANbgdOj-MDICQV8pz-134" value="" style="endArrow=none;html=1;rounded=0;entryX=0.631;entryY=1;entryDx=0;entryDy=0;entryPerimeter=0;fillColor=#f8cecc;strokeColor=#b85450;strokeWidth=5;" parent="1" target="mYkANbgdOj-MDICQV8pz-93" edge="1">
          <mxGeometry width="50" height="50" relative="1" as="geometry">
            <mxPoint x="920" y="600" as="sourcePoint" />
            <mxPoint x="1040" y="680" as="targetPoint" />
            <Array as="points">
              <mxPoint x="920" y="580" />
            </Array>
          </mxGeometry>
        </mxCell>
        <mxCell id="mYkANbgdOj-MDICQV8pz-135" value="" style="endArrow=none;html=1;rounded=0;exitX=0.153;exitY=1.05;exitDx=0;exitDy=0;exitPerimeter=0;fillColor=#d5e8d4;strokeColor=#82b366;strokeWidth=5;" parent="1" source="mYkANbgdOj-MDICQV8pz-85" edge="1">
          <mxGeometry width="50" height="50" relative="1" as="geometry">
            <mxPoint x="1220" y="800" as="sourcePoint" />
            <mxPoint x="100" y="250" as="targetPoint" />
            <Array as="points">
              <mxPoint x="1220" y="800" />
              <mxPoint x="10" y="800" />
              <mxPoint x="10" y="250" />
              <mxPoint x="60" y="250" />
            </Array>
          </mxGeometry>
        </mxCell>
        <mxCell id="mYkANbgdOj-MDICQV8pz-136" value="" style="endArrow=none;html=1;rounded=0;entryX=0.118;entryY=1.05;entryDx=0;entryDy=0;entryPerimeter=0;fillColor=#d5e8d4;strokeColor=#82b366;strokeWidth=5;" parent="1" target="mYkANbgdOj-MDICQV8pz-109" edge="1">
          <mxGeometry width="50" height="50" relative="1" as="geometry">
            <mxPoint x="420" y="800" as="sourcePoint" />
            <mxPoint x="650" y="740" as="targetPoint" />
          </mxGeometry>
        </mxCell>
        <mxCell id="mYkANbgdOj-MDICQV8pz-137" value="" style="endArrow=none;html=1;rounded=0;entryX=0.237;entryY=1;entryDx=0;entryDy=0;entryPerimeter=0;fillColor=#d5e8d4;strokeColor=#82b366;strokeWidth=5;" parent="1" target="mYkANbgdOj-MDICQV8pz-101" edge="1">
          <mxGeometry width="50" height="50" relative="1" as="geometry">
            <mxPoint x="100" y="800" as="sourcePoint" />
            <mxPoint x="200" y="740" as="targetPoint" />
          </mxGeometry>
        </mxCell>
        <mxCell id="mYkANbgdOj-MDICQV8pz-138" value="" style="endArrow=none;html=1;rounded=0;entryX=0.375;entryY=0.975;entryDx=0;entryDy=0;entryPerimeter=0;fillColor=#d5e8d4;strokeColor=#82b366;strokeWidth=5;" parent="1" target="mYkANbgdOj-MDICQV8pz-93" edge="1">
          <mxGeometry width="50" height="50" relative="1" as="geometry">
            <mxPoint x="920" y="800" as="sourcePoint" />
            <mxPoint x="780" y="580" as="targetPoint" />
            <Array as="points">
              <mxPoint x="920" y="630" />
              <mxPoint x="790" y="630" />
            </Array>
          </mxGeometry>
        </mxCell>
        <mxCell id="mYkANbgdOj-MDICQV8pz-139" value="" style="endArrow=none;html=1;rounded=0;fillColor=#d5e8d4;strokeColor=#82b366;strokeWidth=5;" parent="1" edge="1">
          <mxGeometry width="50" height="50" relative="1" as="geometry">
            <mxPoint x="650" y="548" as="sourcePoint" />
            <mxPoint x="790" y="630" as="targetPoint" />
            <Array as="points">
              <mxPoint x="650" y="630" />
            </Array>
          </mxGeometry>
        </mxCell>
        <mxCell id="mYkANbgdOj-MDICQV8pz-140" value="" style="endArrow=none;html=1;rounded=0;exitX=0.092;exitY=1.05;exitDx=0;exitDy=0;exitPerimeter=0;fillColor=#dae8fc;strokeColor=#6c8ebf;strokeWidth=5;" parent="1" source="mYkANbgdOj-MDICQV8pz-69" target="mYkANbgdOj-MDICQV8pz-85" edge="1">
          <mxGeometry width="50" height="50" relative="1" as="geometry">
            <mxPoint x="1057" y="460" as="sourcePoint" />
            <mxPoint x="1350" y="670" as="targetPoint" />
            <Array as="points">
              <mxPoint x="927" y="460" />
              <mxPoint x="1140" y="460" />
              <mxPoint x="1140" y="670" />
              <mxPoint x="1350" y="670" />
            </Array>
          </mxGeometry>
        </mxCell>
        <mxCell id="mYkANbgdOj-MDICQV8pz-141" value="" style="endArrow=none;html=1;rounded=0;fillColor=#d5e8d4;strokeColor=#82b366;strokeWidth=5;" parent="1" edge="1">
          <mxGeometry width="50" height="50" relative="1" as="geometry">
            <mxPoint x="230" y="920" as="sourcePoint" />
            <mxPoint x="10" y="800" as="targetPoint" />
            <Array as="points">
              <mxPoint x="230" y="1000" />
              <mxPoint x="10" y="1000" />
            </Array>
          </mxGeometry>
        </mxCell>
        <mxCell id="mYkANbgdOj-MDICQV8pz-142" value="" style="endArrow=none;html=1;rounded=0;exitX=0.507;exitY=0.975;exitDx=0;exitDy=0;exitPerimeter=0;fillColor=#f8cecc;strokeColor=#b85450;strokeWidth=5;" parent="1" source="mYkANbgdOj-MDICQV8pz-117" edge="1">
          <mxGeometry width="50" height="50" relative="1" as="geometry">
            <mxPoint x="360" y="1000" as="sourcePoint" />
            <mxPoint x="1000" y="600" as="targetPoint" />
            <Array as="points">
              <mxPoint x="361" y="1000" />
              <mxPoint x="1000" y="1000" />
            </Array>
          </mxGeometry>
        </mxCell>
      </root>
    </mxGraphModel>
  </diagram>
</mxfile>
